<?xml version="1.0" standalone="no"?>
<!DOCTYPE svg PUBLIC "-//W3C//DTD SVG 20010904//EN"
 "http://www.w3.org/TR/2001/REC-SVG-20010904/DTD/svg10.dtd">
<svg version="1.0" xmlns="http://www.w3.org/2000/svg"
 width="512.000000pt" height="512.000000pt" viewBox="0 0 512.000000 512.000000"
 preserveAspectRatio="xMidYMid meet">
<metadata>
Created by potrace 1.11, written by Peter Selinger 2001-2013
</metadata>
<g transform="translate(0.000000,512.000000) scale(0.100000,-0.100000)"
fill="#000000" stroke="none">
<path d="M1259 5116 c-2 -2 -49 -6 -104 -9 -55 -4 -113 -9 -130 -12 -16 -2
-43 -7 -60 -9 -309 -49 -551 -192 -730 -431 -70 -94 -146 -250 -170 -351 -60
-251 -60 -256 -60 -1744 0 -1165 3 -1435 19 -1530 3 -14 7 -43 10 -65 11 -87
58 -244 96 -323 108 -225 280 -398 505 -508 89 -44 242 -89 340 -100 27 -4 53
-8 56 -10 49 -28 3023 -27 3069 1 3 2 26 6 50 9 87 11 243 55 319 91 69 33
169 91 181 105 3 4 16 14 30 23 102 69 264 278 325 417 50 115 89 301 103 490
9 128 9 2691 0 2805 -21 244 -54 387 -125 529 -163 329 -477 547 -858 596 -44
6 -96 13 -115 17 -36 6 -2744 15 -2751 9z"/>
</g>
</svg>
